/* XPM */
static char *ball_32px[] = {
/* columns rows colors chars-per-pixel */
"32 32 8 1 ",
"  c #70C9A1",
". c None",
"X c #501000",
"o c #484858",
"O c #903828",
"+ c #E06848",
"@ c #C0C0D0",
"# c #F8F8F8",
/* pixels */
"                                ",
"                                ",
"                                ",
"                                ",
"                                ",
"                                ",
"            XXXXXXXX            ",
"            XXXXXXXX            ",
"          XX++++++++XX          ",
"          XX++++++++XX          ",
"        XX++##++OOOO++XX        ",
"        XX++##++OOOO++XX        ",
"      XX++OO++++OOOOOO++XX      ",
"      XX++OO++++OOOOOO++XX      ",
"      ..++OOOO....OOOO++..      ",
"      ..++OOOO....OOOO++..      ",
"      oo..OO..@@@@..OO..oo      ",
"      oo..OO..@@@@..OO..oo      ",
"      oo##....@@@@....@@oo      ",
"      oo##....@@@@....@@oo      ",
"        oo####....####oo        ",
"        oo####....####oo        ",
"          oo@@####@@oo          ",
"          oo@@####@@oo          ",
"            oooooooo            ",
"            oooooooo            ",
"                                ",
"                                ",
"                                ",
"                                ",
"                                ",
"                                "
};
