/* XPM */
static char *ladder_32px[] = {
/* columns rows colors chars-per-pixel */
"32 32 28 1 ",
"  c black",
". c #454545",
"X c #464646",
"o c #67674D",
"O c #67674E",
"+ c #68684E",
"@ c #876E48",
"# c #906F45",
"$ c #907045",
"% c #917045",
"& c #917046",
"* c #89785B",
"= c #B89034",
"- c #B99034",
"; c #B99134",
": c #B99135",
"> c #D8B034",
", c #D8B134",
"< c #D9B134",
"1 c #D9B135",
"2 c #98986F",
"3 c #808070",
"4 c #818170",
"5 c #999970",
"6 c #E8D878",
"7 c #E8D978",
"8 c #E9D978",
"9 c #6FC8A0",
/* pixels */
"99999933OO..6666++++O+OOOO339999",
"99999933OO..6666+++++OOOOO3*9999",
"9933OOOO..6611..........OOOO3399",
"9933OOOO..6611..........OOOO3399",
"99OOOO....11..............O+OO33",
"99OOOO....11..............O+OO33",
"33OO......%%11............%%%%OO",
"33OO......%#11............%%@%OO",
"++....  ..11--66    ....%%6666O+",
"++....  ..11--66    ....#%6666OO",
"O+..    ..11  --66      6611..OO",
"O+..    ..11  --66      6611..OO",
"OO      ..11    #%66  %%66  ..++",
"OO      ..11    %%66  %%66  ..++",
"OO      ..--11    --11..66    ++",
"OO      ..--11    --11..66    ++",
"OO      ..----11    --..11    O+",
"OO      ..----11    --..11    +O",
"OO      ..--  --11    ..11    OO",
"OO      ..--  --11    ..11    OO",
"OO        +O    --11  ..11    OO",
"OO        OO    --11  ..11    OO",
"OO        ++--    %%11..11    OO",
"OO        ++--    %%11..11    OO",
"OO..        ++OO    %%..11    ++",
"OO..        ++OO    %%..11    ++",
"22++..        +O++    ..O+  ..55",
"22++..        +O++    ..++  ..55",
"9922OOOO....    +OOO  ..  ..5599",
"9922OOOO....    OOOO  ..  ..5599",
"99995533OOOOOOOOOO++++O+++229999",
"99995533OOOOOOOOOO++++O+++229999"
};
