/* XPM */
static char *player_32px[] = {
/* columns rows colors chars-per-pixel */
"16 32 13 1 ",
"  c #70C9A1",
". c None",
"X c #682828",
"o c #383878",
"O c #784040",
"+ c #C03838",
"@ c #A87840",
"# c #F86848",
"$ c #D89070",
"% c #70A0C0",
"& c #F8C090",
"* c #B0B0D0",
"= c #E8E8F8",
/* pixels */
"                ",
"                ",
"                ",
"                ",
"                ",
"                ",
"                ",
"                ",
"                ",
"                ",
"                ",
"                ",
"    XXXXXXXX    ",
"   X+######+X   ",
"   X########X   ",
"  X+########+X  ",
"  .++######++.  ",
"  .++++==++++.  ",
" .@X*+*++*+*X@. ",
" .$.o======o.$. ",
"  .O$oooooo$O.  ",
"  .$$&.&&.&$$.  ",
"   O$$O&&O$$O   ",
"  .o.O$$$$O.o.  ",
" O&oo+....+oo&O ",
" O$$o++**++o$$O ",
"  O..+#==#+..O  ",
"   o%o....o%o   ",
"   ..%%..%%..   ",
"   .oo.  .oo.   ",
"    ..    ..    ",
"                "
};
