/* XPM */
static char *stone_32px[] = {
/* columns rows colors chars-per-pixel */
"32 32 5 1 ",
"  c #70C9A1",
". c black",
"X c #383818",
"o c #787040",
"O c #C8A860",
/* pixels */
"                                ",
"                                ",
"            XXXXXX              ",
"            XXXXXX              ",
"        XXXXXXOOOOXXXX          ",
"        XXXXXXOOOOXXXX          ",
"      XXXXXXOOOOOOOOooXX        ",
"      XXXXXXOOOOOOOOooXX        ",
"    XXooOOXXOOOOOOooooXX..      ",
"    XXooOOXXOOOOOOooooXX..      ",
"    XXXXOOOOooOOooOOXX..oo..    ",
"    XXXXOOOOooOOooOOXX..oo..    ",
"  XXooooooOOOOXXXX....XXXX..    ",
"  XXoo..ooOOOOXXXX....XXXX..    ",
"  ..XX..XXooOOooOOooXXooooXX..  ",
"  ..XX..XXooOOooOOooXXooooXX..  ",
"  ..ooOOXXXXooOOoo..oooooo....  ",
"  ..ooOOXXXXooOOoo..oooooo....  ",
"  ..XXooOOXXOOooXX..XXoo..XX..  ",
"  ..XXooOOXXOOooXX..XXoo..XX..  ",
"  ..XXXXXX..XXXXoooo..XXXXXX..  ",
"  ..XXXXXX..XXXXoooo..XXXXXX..  ",
"  ..XXXX....XXooXXXX....XXXX..  ",
"  ..XXXX....XXooXXXX....XXXX..  ",
"    ..XX....XXXXXXXX........    ",
"    ..XX....XXXXXXXX........    ",
"      ........XXXX......        ",
"      ........XXXX......        ",
"            ........            ",
"            ........            ",
"                                ",
"                                "
};
