/* XPM */
static char *tile01_32px[] = {
/* columns rows colors chars-per-pixel */
"32 32 28 1 ",
"  c #345606",
". c #345607",
"X c #345707",
"o c #355707",
"O c #34902B",
"+ c #34912B",
"@ c #34912C",
"# c #35912C",
"$ c #10A067",
"% c #10A167",
"& c #11A168",
"* c #80D05E",
"= c #80D05F",
"- c #80D15F",
"; c #81D15F",
": c #3CB188",
"> c #3DB188",
", c #3DB189",
"< c #6FC8A0",
"1 c #6FC9A0",
"2 c #6FC9A1",
"3 c #70C9A1",
"4 c #B8F888",
"5 c #B9F888",
"6 c #B9F889",
"7 c #B9F989",
"8 c #88D9B9",
"9 c #89D9B9",
/* pixels */
"<<3333<<<<33<<<<<<<<<<<<<<33<<33",
"<<3333<<<<33<<<<<<<<<<<<<<33<<33",
"333333<<33<<@@OO@@OO9933<3<<<<33",
"333333<<33<<@@OO@@OO993333<<<<33",
"33<<<<33@@OO55----55OOOO3399<<33",
"33<<<<33@@OO55----55OOOO3399<<33",
"<<<<33@@55555555555555--@O333333",
"<<<<33O@55555555555555--OO333333",
"33<<OO--5555555555555555--@@3<<<",
"33<<OO--5555555555555555--@@3<<<",
"3333O@----5555----5555----OO<<<<",
"3333@@----5555----5555----OO<<<<",
"33OO--@@5555555555555555OO--O@<<",
"33OO--OO5555555555555555OO--O@<<",
"33--OO--5555555555555555--OO--,,",
"33--OO--5555555555555555--OO--,,",
"<<oo--OO--5555----5555--OO--oo%%",
"<3oo--OO--5555----5555--OO--oo%%",
"3<OO--OO----------------O@--OO%%",
"<<OO--OO----------------OO--OO%%",
"<<ooOO----OO@@----OOOO----OOoo%%",
"<<ooOO----OO@@----OOOO----OOoo%%",
"3<ooOOOO------OOOO------@@@@oo%%",
"3<ooOOOO------OO@O------@@@Ooo%%",
"33,,oo@OOOOOO@----OOOOOOOOoo%&,,",
"33,,oo@OOOOO@@----OOOOOOOOoo&&,,",
"33<<%%@OooooOO@@OOOOooooOO%%,,<3",
"33<<%%OOooooOO@@OOOOooooOO%%,,33",
"<3<<<<%&%%%%oooooooo%%%%%%%%33<<",
"<<<3<<&&%%%%oooooooo%%%%%%%&33<<",
"33333333<<,,%%%%%%%%%%,,<3333333",
"3333333333,,%%%%%%%%&&,,33333333"
};
