/* XPM */
static char *tile00_32px[] = {
/* columns rows colors chars-per-pixel */
"32 32 9 1 ",
"  c #3DB188",
". c #3DB189",
"X c #6FC8A0",
"o c #6FC9A0",
"O c #6FC9A1",
"+ c #70C9A1",
"@ c #A0E0C0",
"# c #A1E0C1",
"$ c #A1E1C1",
/* pixels */
"XX++++++XXXXXX++XX++XX++++++XX++",
"XX++++++XXXXXX++XX++XX++++++XX++",
"XXXX++++++++XXXXXX++XX++++++XX++",
"XXXX++++++++XXXXXX++XX++++++XX++",
"++XXXXXX++++XX++++++XX++++XXXXXX",
"++XXXXXX++++XX++++++XX++++XXXXXX",
"++++XXXX++  ++++++++++++++XX++++",
"++++XXXX++  ++++++++++++++XX++++",
"++++  XXX+  XX++  XXXXXXXXXX++++",
"++++  XXX+  XX++  XXXXXXXXXX++++",
"++++++  ++++++  ++++++XX++XXXX++",
"++++++  ++++++  ++++++XX++XXXX++",
"++XX++XX++++++++++++++XX++XXXX++",
"++XX++XX++++++++++++++XX++XXXX++",
"++++XX++++++++++XX++XXXXXXXX++XX",
"++++XX++++++++XXXX++XXXXXXXX++XX",
"++++XX++XX++XXXXXXXXXX++XX++XXXX",
"++++XX++XX++XXXXXXXXXX++XX++XXXX",
"XXXXXX++XXXXXX++XX++XX$$++++XX++",
"XXXXXX++XXXXXX++XX++XX$$++++XX++",
"XX++XXXXXX++XX++$$XXXX$$++++$$X+",
"XX++XXXXXX++XX++$$XXXX$$++++$$++",
"++++XX++XXXX++++++$$++XXXX$$XXXX",
"++++XX++XXXX++++++$$++XXXX$$XXXX",
"XX++++XXXXXXXX++XX++XX++XX++XX++",
"XX++++XXXXXXXX++XX++XX++XX++XX++",
"++++++XXXXXXXX++XXXX++++X+++++++",
"++++++XXXXXXXX++XXXX++++X+++++++",
"++++++++++XXXX++XXXXXXXX++++++++",
"++++++++++XXXX++XXXXXXXX++++++++",
"++++++++++XXXX++XXXXXXXX+++X++++",
"++++++++++XXXX++XXXXXXXX++++++++"
};
