/* XPM */
static char *result[] = {
/* columns rows colors chars-per-pixel */
"32 32 141 2 ",
"   c #796C34",
".  c #8A511F",
"X  c #B14616",
"o  c #B14C15",
"O  c #B25014",
"+  c #B35014",
"@  c #B45115",
"#  c #B65115",
"$  c #B75315",
"%  c #BA5915",
"&  c #BC5D15",
"*  c #BC5E15",
"=  c #BF6215",
"-  c #BF6315",
";  c #C06315",
":  c #118F4D",
">  c #128E4E",
",  c #10914D",
"<  c #11914E",
"1  c #13904F",
"2  c #11924E",
"3  c #11924F",
"4  c #12924F",
"5  c #12934F",
"6  c #129350",
"7  c #149250",
"8  c #159153",
"9  c #129450",
"0  c #139450",
"q  c #139551",
"w  c #139651",
"e  c #139652",
"r  c #149452",
"t  c #149652",
"y  c #159652",
"u  c #149752",
"i  c #149753",
"p  c #159753",
"a  c #179555",
"s  c #159853",
"d  c #159854",
"f  c #159954",
"g  c #169854",
"h  c #169954",
"j  c #169955",
"k  c #169A55",
"l  c #169B55",
"z  c #169B56",
"x  c #179B56",
"c  c #179C56",
"v  c #179C57",
"b  c #179D57",
"n  c #189A56",
"m  c #189D57",
"M  c #1A9759",
"N  c #1A9858",
"B  c #1A9A59",
"V  c #1B9B5B",
"C  c #189D58",
"Z  c #189E58",
"A  c #199E58",
"S  c #199F59",
"D  c #1B9C5A",
"F  c #1D9C5D",
"G  c #1C9E5C",
"H  c #1D9F5F",
"J  c #248244",
"K  c #258646",
"L  c #19A059",
"P  c #19A05A",
"I  c #1AA05A",
"U  c #1AA15A",
"Y  c #1AA15B",
"T  c #1AA25B",
"R  c #1BA25B",
"E  c #1BA25C",
"W  c #1BA35C",
"Q  c #1CA35D",
"!  c #1BA45C",
"~  c #1CA45D",
"^  c #1CA55D",
"/  c #1CA55E",
"(  c #1FA061",
")  c #21A365",
"_  c #22A567",
"`  c #22A767",
"'  c #2BA669",
"]  c #24A968",
"[  c #24A86A",
"{  c #24A96B",
"}  c #25A96B",
"|  c #25AA6B",
" . c #26AB6B",
".. c #25AA6C",
"X. c #25AB6C",
"o. c #25AB6D",
"O. c #26AB6D",
"+. c #26AC6D",
"@. c #27AC6D",
"#. c #26AD6D",
"$. c #26AC6E",
"%. c #26AD6E",
"&. c #27AD6E",
"*. c #27AD6F",
"=. c #27AE6F",
"-. c #27AF6F",
";. c #27AF70",
":. c #28AF70",
">. c #28B070",
",. c #28B071",
"<. c #28B171",
"1. c #29B171",
"2. c #29B172",
"3. c #29B272",
"4. c #29B273",
"5. c #29B373",
"6. c #2AB373",
"7. c #2AB474",
"8. c #2BB574",
"9. c #2BB575",
"0. c #2BB675",
"q. c #2BB676",
"w. c #2BB776",
"e. c #2BB777",
"r. c #2CB676",
"t. c #2CB776",
"y. c #2CB777",
"u. c #2CB877",
"i. c #2DB877",
"p. c #2DB878",
"a. c #2DB978",
"s. c #2DBA79",
"d. c #2EBA79",
"f. c #2EBB79",
"g. c #2EBB7A",
"h. c #53874F",
"j. c #53884F",
"k. c #548A4E",
"l. c #538850",
"z. c #479457",
"x. c None",
/* pixels */
"x.x.x.x.x.x.x.x.x.x.x.x.x.x.x.x.x.x.x.x.x.x.x.x.x.x.x.x.x.x.x.x.",
"x.x.x.x.x.x.x.x.x.x.x.x.x.x.x.x.x.x.x.x.x.x.x.x.x.x.x.x.x.x.x.x.",
"x.x.x.x.x.x.x.x.x./ ^ ~ x.x.x.x.x.x.x.x.x.x.x.x.x.x.x.x.x.x.x.x.",
"x.x.x.x.x.x.x.x.~ ~ ! W W x.x.x.x.x.x.g.g.x.x.x.x.x.x.x.x.x.x.x.",
"x.x.x.x.x.x.x.Q W W W E T Y x.x.x.x.g.f.d.d.x.x.x.x.x.x.x.x.x.x.",
"x.x.x.x.x.x.W E R R Y Y U I I x.x.x.d.s.a.a.x.x.x.x.x.x.x.x.x.x.",
"x.x.x.x.E E R T Y U I P L S S A G 0.a.a.a.a.p.x.x.x.x.x.x.x.x.x.",
"x.x.x.T T Y U I P L S S A Z Z n ] a.p.i.u.u.y.e.x.x.x.x.x.x.x.x.",
"x.x.x.U U I P L S S Z Z C m x D i.i.u.u.y.t.t.r.x.x.x.x.x.x.x.x.",
"x.x.x.P S S S Z Z Z m m v v g ` y.y.t.t.r.q.0.0.9.x.x.x.x.x.x.x.",
"x.x.x.S A Z Z C m b v c x x h N w.t.q.q.0.9.9.9.x.x.x.x.x.x.x.x.",
"x.x.x.C C m v v c x z l k k y ( 0.0.9.9.9.8.7.7.x.x.x.x.x.x.x.x.",
"x.x.x.x.v v x x l k k k f s B 1.9.9.8.7.7.7.6.6.6.x.x.x.x.x.x.x.",
"x.x.x.x x z k k j f f d s 7  .8.7.7.7.7.6.6.6.4.3.3.x.x.x.x.x.x.",
"x.x.l l k k h f d d s i r H 7.7.7.6.6.6.4.3.3.3.2.2.x.x.x.x.x.x.",
"x.x.k h f f s s i i u t a #.6.6.6.5.3.3.3.2.1.1.,.,.,.x.x.x.x.x.",
"x.x.f d s s i u t t w q a =.6.4.3.3.2.2.1.<.,.,.>.>.:.x.x.x.x.x.",
"x.x.p i u t t e q q 0 0 1 M 3.3.2.1.<.,.,.>.:.:.;.;.x.x.x.x.x.x.",
"x.x.x.t e q q q 0 9 6 6 1 _ 1.1.,.,.,.>.:.:.;.-.=.=.=.x.x.x.x.x.",
"x.x.x.w q 0 9 6 5 5 3 : V :.,.,.>.:.:.;.=.=.=.=.&.%.%.x.x.x.x.x.",
"x.x.x.x.x.6 5 4 3 2 : 8 :.>.:.:.;.;.=.=.=.*.&.%.%.$.+.+.x.x.x.x.",
"x.x.x.x.x.x.x.x.< , > ) :.:.-.=.=.=.*.&.%.%.$.+.+.O.o.X.X.x.x.x.",
"x.x.x.x.x.x.x.x.K J F -.=.=.=.=.&.%.%.$.+.+.+.O.o.X.......} x.x.",
"x.x.x.x.x.x.x.x.x.. ' =.=.&.%.%.$.$.+.+.o.o.X.......| { { { x.x.",
"x.x.x.x.x.x.x.x.x.o   k.z.@.$.+.+.O.l.l.j.h.....| { { { [ x.x.x.",
"x.x.x.x.x.x.x.x.x.$ @ O + x.x.x.x.x.X X X X x.x.x.x.x.x.x.x.x.x.",
"x.x.x.x.x.x.x.x.x.% % % % x.x.x.x.x.# # # # x.x.x.x.x.x.x.x.x.x.",
"x.x.x.x.x.x.x.x.x.* * * & x.x.x.x.x.% % % % x.x.x.x.x.x.x.x.x.x.",
"x.x.x.x.x.x.x.x.x.; ; ; ; x.x.x.x.x.= - - - x.x.x.x.x.x.x.x.x.x.",
"x.x.x.x.x.x.x.x.x.x.x.x.x.x.x.x.x.x.x.x.x.x.x.x.x.x.x.x.x.x.x.x.",
"x.x.x.x.x.x.x.x.x.x.x.x.x.x.x.x.x.x.x.x.x.x.x.x.x.x.x.x.x.x.x.x.",
"x.x.x.x.x.x.x.x.x.x.x.x.x.x.x.x.x.x.x.x.x.x.x.x.x.x.x.x.x.x.x.x."
};
