/* XPM */
static char *result[] = {
/* columns rows colors chars-per-pixel */
"64 64 3 1 ",
"  c #FEFEFE",
". c white",
"X c None",
/* pixels */
"XXXXXXXXXXXXXXXXXXXXXXXXXXXXXXXXXXXXXXXXXXXXXXXXXXXXXXXXXXXXXXXX",
"XXXXXXXXXXXXXXXXXXXXXXXXXXXXXXXXXXXXXXXXXXXXXXXXXXXXXXXXXXXXXXXX",
"XXXXXXXXXXXXXXXXXXXXXXXXXXX.        .XXXXXXXXXXXXXXXXXXXXXXXXXXX",
"XXXXXXXXXXXXXXXXXXXXXXX ................ XXXXXXXXXXXXXXXXXXXXXXX",
"XXXXXXXXXXXXXXXXXXXX........................XXXXXXXXXXXXXXXXXXXX",
"XXXXXXXXXXXXXXXXXX............................XXXXXXXXXXXXXXXXXX",
"XXXXXXXXXXXXXXXX ..........XXX....XXX.......... XXXXXXXXXXXXXXXX",
"XXXXXXXXXXXXXXX........XXXXXXX....XXXXXXX........XXXXXXXXXXXXXXX",
"XXXXXXXXXXXXX.......XXXXXXXXXX....XXXXXXXXXX.......XXXXXXXXXXXXX",
"XXXXXXXXXXXX.......XXXXXXXXXXX....XXXXXXXXXXX.......XXXXXXXXXXXX",
"XXXXXXXXXXX..... XXXXXXXXXXXXX....XXXXXXXXXXXXX .....XXXXXXXXXXX",
"XXXXXXXXXX......XXXXXXXXXXXXXX....XXXXXXXXXXXXXX......XXXXXXXXXX",
"XXXXXXXXX.....XXXXXXXXXXXXXXXX....XXXXXXXXXXXXXXXX.....XXXXXXXXX",
"XXXXXXXX.....XXXXXXXXXXXXXXXXX....XXXXXXXXXXXXXXXXX.....XXXXXXXX",
"XXXXXXXX.....XXXXXXXXXXXXXXXXX....XXXXXXXXXXXXXXXXX.....XXXXXXXX",
"XXXXXXX.... XXXXXXXXXXXXXXXXXX....XXXXXXXXXXXXXXXXXX ....XXXXXXX",
"XXXXXX ....XXXXXXXXXXXXXXXXXXX....XXXXXXXXXXXXXXXXXXX.... XXXXXX",
"XXXXXX....XXXXXXXXXXXXXXXXXXXX....XXXXXXXXXXXXXXXXXXXX....XXXXXX",
"XXXXX ....XXXXXXXXXXXXXXXXXXXX....XXXXXXXXXXXXXXXXXXXX.... XXXXX",
"XXXXX....XXXXXXXXXXXXXXXXXXXXX....XXXXXXXXXXXXXXXXXXXXX....XXXXX",
"XXXX ....XXXXXXXXXXXXXXXXXXXXX....XXXXXXXXXXXXXXXXXXXXX.... XXXX",
"XXXX....XXXXXXXXXXXXXXXXXXXXXX....XXXXXXXXXXXXXXXXXXXXXX....XXXX",
"XXX.....XXXXXXXXXXXXXXXXXXXXXX....XXXXXXXXXXXXXXXXXXXXXX.....XXX",
"XXX ...XXXXXXXXXXXXXXXXXXXXXXX....XXXXXXXXXXXXXXXXXXXXXXX... XXX",
"XXX....XXXXXXXXXXXXXXXXXXXXXXXXXXXXXXXXXXXXXXXXXXXXXXXXXX....XXX",
"XXX... XXXXXXXXXXXXXXXXXXXXXXXXXXXXXXXXXXXXXXXXXXXXXXXXXX ...XXX",
"XX....XXXXXXXXXXXXXXXXXXXXXXXXXXXXXXXXXXXXXXXXXXXXXXXXXXXX....XX",
"XX ...XXXXXXXXXXXXXXXXXXXXXXXXXXXXXXXXXXXXXXXXXXXXXXXXXXXX... XX",
"XX....XXXXXXXXXXXXXXXXXXXXXXXXXXXXXXXXXXXXXXXXXXXXXXXXXXXX....XX",
"XX....XXXXXXXXXXXXXXXXXXXXXXXXXXXXXXXXXXXXXXXXXXXXXXXXXXXX....XX",
"XX......................XXXXXX....XXXXXX......................XX",
"XX......................XXXXXX....XXXXXX......................XX",
"XX......................XXXXXX....XXXXXX......................XX",
"XX......................XXXXXX....XXXXXX......................XX",
"XX....XXXXXXXXXXXXXXXXXXXXXXXXXXXXXXXXXXXXXXXXXXXXXXXXXXXX....XX",
"XX ...XXXXXXXXXXXXXXXXXXXXXXXXXXXXXXXXXXXXXXXXXXXXXXXXXXXX... XX",
"XX ...XXXXXXXXXXXXXXXXXXXXXXXXXXXXXXXXXXXXXXXXXXXXXXXXXXXX... XX",
"XXX...XXXXXXXXXXXXXXXXXXXXXXXXXXXXXXXXXXXXXXXXXXXXXXXXXXXX...XXX",
"XXX... XXXXXXXXXXXXXXXXXXXXXXXXXXXXXXXXXXXXXXXXXXXXXXXXXX ...XXX",
"XXX....XXXXXXXXXXXXXXXXXXXXXXXXXXXXXXXXXXXXXXXXXXXXXXXXXX....XXX",
"XXX ...XXXXXXXXXXXXXXXXXXXXXXX....XXXXXXXXXXXXXXXXXXXXXXX... XXX",
"XXX.....XXXXXXXXXXXXXXXXXXXXXX....XXXXXXXXXXXXXXXXXXXXXX.....XXX",
"XXXX....XXXXXXXXXXXXXXXXXXXXXX....XXXXXXXXXXXXXXXXXXXXXX....XXXX",
"XXXX ...XXXXXXXXXXXXXXXXXXXXXX....XXXXXXXXXXXXXXXXXXXXXX... XXXX",
"XXXXX....XXXXXXXXXXXXXXXXXXXXX....XXXXXXXXXXXXXXXXXXXXX....XXXXX",
"XXXXX....XXXXXXXXXXXXXXXXXXXXX....XXXXXXXXXXXXXXXXXXXXX....XXXXX",
"XXXXXX....XXXXXXXXXXXXXXXXXXXX....XXXXXXXXXXXXXXXXXXXX....XXXXXX",
"XXXXXX ....XXXXXXXXXXXXXXXXXXX....XXXXXXXXXXXXXXXXXXX.... XXXXXX",
"XXXXXXX.....XXXXXXXXXXXXXXXXXX....XXXXXXXXXXXXXXXXXX.....XXXXXXX",
"XXXXXXX.....XXXXXXXXXXXXXXXXXX....XXXXXXXXXXXXXXXXXX.....XXXXXXX",
"XXXXXXXX.....XXXXXXXXXXXXXXXXX....XXXXXXXXXXXXXXXXX.....XXXXXXXX",
"XXXXXXXXX .....XXXXXXXXXXXXXXX....XXXXXXXXXXXXXXX..... XXXXXXXXX",
"XXXXXXXXXX......XXXXXXXXXXXXXX....XXXXXXXXXXXXXX......XXXXXXXXXX",
"XXXXXXXXXXX .... XXXXXXXXXXXXX....XXXXXXXXXXXXX .... XXXXXXXXXXX",
"XXXXXXXXXXXX.......XXXXXXXXXXX....XXXXXXXXXXX.......XXXXXXXXXXXX",
"XXXXXXXXXXXXX...... XXXXXXXXXX....XXXXXXXXXX ......XXXXXXXXXXXXX",
"XXXXXXXXXXXXXXX........XXXXXXX....XXXXXXX........XXXXXXXXXXXXXXX",
"XXXXXXXXXXXXXXXX........ .XXXX....XXXX. ........XXXXXXXXXXXXXXXX",
"XXXXXXXXXXXXXXXXXX............................XXXXXXXXXXXXXXXXXX",
"XXXXXXXXXXXXXXXXXXXX ...................... XXXXXXXXXXXXXXXXXXXX",
"XXXXXXXXXXXXXXXXXXXXXX....................XXXXXXXXXXXXXXXXXXXXXX",
"XXXXXXXXXXXXXXXXXXXXXXXXX.  ........  .XXXXXXXXXXXXXXXXXXXXXXXXX",
"XXXXXXXXXXXXXXXXXXXXXXXXXXXXXXXXXXXXXXXXXXXXXXXXXXXXXXXXXXXXXXXX",
"XXXXXXXXXXXXXXXXXXXXXXXXXXXXXXXXXXXXXXXXXXXXXXXXXXXXXXXXXXXXXXXX"
};
